<svg xmlns="http://www.w3.org/2000/svg" xmlns:xlink="http://www.w3.org/1999/xlink" width="700" zoomAndPan="magnify" viewBox="0 0 525 374.999991" height="500" preserveAspectRatio="xMidYMid meet" version="1.0"><rect x="-52.5" width="630" fill="#ffffff" y="-37.499999" height="449.999989" fill-opacity="1"/><rect x="-52.5" width="630" fill="#ff7714" y="-37.499999" height="449.999989" fill-opacity="1"/><path fill="#ffa584" d="M 340.117188 172.046875 C 342.78125 158.210938 327.765625 156.460938 319.902344 158.082031 C 308.265625 160.484375 297.082031 174.253906 297.082031 174.253906 C 297.082031 174.253906 293.636719 192.046875 302.738281 188.734375 C 320.746094 182.175781 333.617188 187.5 340.117188 172.046875 Z M 340.117188 172.046875 " fill-opacity="1" fill-rule="evenodd"/><path fill="#ffa584" d="M 298.058594 173.410156 C 311.449219 165.355469 322.046875 209.386719 332.964844 216.269531 C 332.316406 223.027344 325.164062 224.519531 325.164062 224.519531 C 325.164062 224.519531 280.703125 182.957031 298.058594 173.410156 Z M 298.058594 173.410156 " fill-opacity="1" fill-rule="evenodd"/><path fill="#ffa584" d="M 330.757812 214.84375 C 333.683594 213.933594 350.324219 220.296875 351.296875 223.609375 C 353.3125 230.039062 327.832031 227.832031 327.832031 227.832031 C 327.832031 227.832031 323.929688 227.117188 322.371094 222.507812 C 320.808594 217.894531 325.230469 212.503906 330.757812 214.84375 Z M 330.757812 214.84375 " fill-opacity="1" fill-rule="evenodd"/><path fill="#ffa584" d="M 225.964844 201.984375 C 225.964844 201.984375 212.445312 196.851562 200.875 195.621094 C 200.875 188.152344 189.496094 170.226562 189.496094 170.226562 L 223.753906 171.199219 C 223.691406 171.136719 235.457031 198.542969 225.964844 201.984375 Z M 225.964844 201.984375 " fill-opacity="1" fill-rule="evenodd"/><path fill="#3f4a93" d="M 136.320312 167.628906 C 133.265625 167.109375 127.9375 167.757812 122.929688 164.511719 C 117.535156 164.578125 115.648438 178.34375 120.851562 181.265625 C 120.851562 181.265625 111.554688 210.296875 126.570312 220.101562 C 141.71875 222.050781 137.945312 206.074219 137.554688 198.347656 C 141.390625 189.449219 142.171875 191.984375 144.640625 186.980469 C 145.746094 184.773438 144.253906 183.410156 144.253906 183.410156 C 144.253906 183.410156 145.164062 169.121094 136.320312 167.628906 Z M 136.320312 167.628906 " fill-opacity="1" fill-rule="evenodd"/><path fill="#ffa584" d="M 200.875 195.554688 C 193.074219 193.476562 185.011719 193.347656 183.582031 191.464844 C 164.015625 189.90625 158.8125 187.371094 140.546875 187.046875 C 134.761719 186.527344 132.160156 172.824219 138.207031 172.238281 C 154.589844 170.746094 167.132812 158.019531 190.730469 170.292969 C 205.617188 170.746094 204.707031 193.671875 200.875 195.554688 Z M 200.875 195.554688 " fill-opacity="1" fill-rule="evenodd"/><path fill="#ffa584" d="M 207.894531 198.738281 C 207.894531 198.738281 193.980469 197.566406 182.347656 197.308594 C 181.632812 189.90625 168.695312 173.019531 168.695312 173.019531 L 206.136719 173.539062 C 206.136719 173.539062 217.058594 194.449219 207.894531 198.738281 Z M 207.894531 198.738281 " fill-opacity="1" fill-rule="evenodd"/><path fill="#3f4a93" d="M 116.039062 175.488281 C 112.855469 174.253906 111.359375 176.070312 106.09375 171.71875 C 100.503906 170.488281 94.78125 180.8125 100.242188 184.96875 C 100.242188 184.96875 91.140625 210.882812 106.875 224 C 126.375 223.871094 118.378906 213.152344 117.859375 205.554688 C 121.695312 197.890625 122.539062 200.492188 124.945312 196.203125 C 126.050781 194.320312 124.425781 192.695312 124.425781 192.695312 C 124.425781 192.695312 125.207031 179.058594 116.039062 175.488281 Z M 116.039062 175.488281 " fill-opacity="1" fill-rule="evenodd"/><path fill="#ffa584" d="M 182.347656 197.308594 C 174.351562 195.945312 166.355469 196.527344 164.792969 194.773438 C 145.164062 195.035156 134.632812 192.828125 116.429688 194.125 C 110.644531 194.125 115.390625 178.410156 121.371094 177.304688 C 137.554688 174.316406 145.421875 162.953125 170.058594 173.019531 C 184.882812 172.175781 186.050781 195.035156 182.347656 197.308594 Z M 182.347656 197.308594 " fill-opacity="1" fill-rule="evenodd"/><path fill="#3f4a93" d="M 265.425781 162.695312 C 270.558594 169.121094 272.964844 185.164062 271.601562 187.828125 C 261.785156 206.59375 238.1875 205.492188 197.039062 198.800781 C 194.308594 193.671875 196.582031 170.160156 204.644531 168.539062 C 220.113281 165.292969 247.484375 140.417969 265.425781 162.695312 Z M 265.425781 162.695312 " fill-opacity="1" fill-rule="evenodd"/><path fill="#ffa584" d="M 363.453125 166.003906 C 354.875 169.578125 348.375 169.578125 340.765625 168.601562 C 340.050781 165.679688 339.011719 164.253906 339.011719 164.253906 C 339.011719 164.253906 328.871094 194.386719 340.765625 192.957031 C 342.003906 189.839844 344.34375 188.867188 344.34375 188.867188 C 344.34375 188.867188 351.6875 186.332031 361.375 189.058594 C 371.0625 191.851562 369.433594 168.148438 363.453125 166.003906 Z M 363.453125 166.003906 " fill-opacity="1" fill-rule="evenodd"/><path fill="#d34646" d="M 359.75 168.214844 C 350.324219 169.449219 345.449219 185.8125 351.753906 188.347656 C 361.246094 192.113281 366.835938 169.1875 359.75 168.214844 Z M 359.75 168.214844 " fill-opacity="1" fill-rule="evenodd"/><path fill="#ffa584" d="M 358.644531 171.980469 C 353.3125 176.527344 352.144531 185.292969 354.742188 191.269531 C 358.320312 199.777344 371.449219 205.816406 385.230469 204.320312 L 405.125 203.152344 C 405.125 203.152344 414.355469 206.660156 411.363281 195.035156 C 408.828125 185.164062 399.859375 162.757812 390.171875 156.328125 L 370.28125 156.980469 Z M 358.644531 171.980469 " fill-opacity="1" fill-rule="evenodd"/><path fill="#26213f" d="M 398.296875 151.523438 C 398.296875 151.523438 410.84375 145.09375 413.964844 153.339844 C 417.085938 161.589844 404.605469 148.992188 398.296875 151.523438 Z M 398.296875 151.523438 " fill-opacity="1" fill-rule="evenodd"/><path fill="#d34646" d="M 375.546875 168.734375 C 373.464844 167.433594 371.253906 166.65625 368.394531 167.433594 C 368.394531 167.433594 368.980469 161.136719 375.027344 161.71875 C 378.601562 161.980469 375.546875 168.734375 375.546875 168.734375 Z M 375.546875 168.734375 " fill-opacity="1" fill-rule="evenodd"/><path fill="#26213f" d="M 396.609375 204.90625 C 398.753906 208.347656 404.410156 211.59375 406.621094 205.878906 C 433.597656 226.402344 423.066406 157.109375 401.550781 151.003906 C 403.238281 133.402344 381.460938 140.742188 372.621094 145.679688 C 359.164062 153.210938 358.773438 167.757812 358.773438 167.757812 L 363.84375 168.863281 C 363.84375 168.863281 370.605469 152.367188 379.707031 160.160156 C 387.765625 167.042969 376.585938 171.914062 376.585938 171.914062 C 372.164062 174.253906 371.253906 181.460938 386.921875 185.230469 C 386.921875 185.292969 388.613281 192.046875 396.609375 204.90625 Z M 396.609375 204.90625 " fill-opacity="1" fill-rule="evenodd"/><path fill="#ff7714" d="M 254.242188 203.933594 C 243.386719 194.191406 255.285156 144.121094 262.5 155.941406 C 290.777344 159.121094 309.238281 146.199219 329.261719 152.238281 C 341.9375 156.070312 342.976562 168.410156 342.976562 168.410156 C 342.976562 168.410156 334.527344 172.890625 339.726562 184.515625 C 341.09375 187.566406 346.097656 189.191406 346.097656 189.191406 C 346.097656 189.191406 336.933594 203.023438 329.195312 204.582031 C 296.171875 211.269531 254.242188 203.933594 254.242188 203.933594 Z M 254.242188 203.933594 " fill-opacity="1" fill-rule="evenodd"/><path fill="#3f4a93" d="M 346.8125 189.058594 C 346.8125 189.058594 346.164062 192.503906 343.304688 193.085938 C 331.601562 186.917969 330.105469 170.488281 342.199219 164.707031 C 343.757812 165.484375 343.5625 168.796875 343.5625 168.796875 C 338.6875 170.03125 336.085938 186.007812 346.8125 189.058594 Z M 346.8125 189.058594 " fill-opacity="1" fill-rule="evenodd"/><path fill="#ffa584" d="M 317.105469 184.253906 C 319.835938 169.96875 304.296875 168.148438 296.238281 169.835938 C 284.210938 172.304688 262.566406 183.800781 262.566406 183.800781 C 262.566406 183.800781 258.988281 202.113281 268.414062 198.738281 C 287.007812 192.046875 310.410156 200.164062 317.105469 184.253906 Z M 317.105469 184.253906 " fill-opacity="1" fill-rule="evenodd"/><path fill="#ffa584" d="M 263.605469 182.957031 C 277.449219 174.644531 288.371094 220.101562 299.683594 227.183594 C 298.96875 234.128906 291.621094 235.6875 291.621094 235.6875 C 291.621094 235.6875 245.664062 192.828125 263.605469 182.957031 Z M 263.605469 182.957031 " fill-opacity="1" fill-rule="evenodd"/><path fill="#ffa584" d="M 297.34375 225.753906 C 300.398438 224.84375 317.496094 231.402344 318.601562 234.78125 C 320.679688 241.402344 294.351562 239.132812 294.351562 239.132812 C 294.351562 239.132812 290.324219 238.417969 288.695312 233.609375 C 287.070312 228.871094 291.621094 223.351562 297.34375 225.753906 Z M 297.34375 225.753906 " fill-opacity="1" fill-rule="evenodd"/><path fill="#26213f" d="M 198.335938 173.472656 L 169.996094 173.277344 C 169.929688 173.277344 169.929688 173.34375 169.863281 173.277344 C 169.800781 173.214844 161.347656 169.96875 154.652344 169.382812 C 154.457031 169.382812 154.328125 169.1875 154.328125 169.058594 C 154.328125 168.863281 154.523438 168.734375 154.652344 168.796875 C 161.152344 169.449219 169.28125 172.5 169.996094 172.757812 L 198.273438 173.019531 C 198.46875 173.019531 198.597656 173.085938 198.597656 173.277344 C 198.664062 173.410156 198.53125 173.472656 198.335938 173.472656 Z M 198.335938 173.472656 " fill-opacity="1" fill-rule="nonzero"/></svg>