<svg xmlns="http://www.w3.org/2000/svg" xmlns:xlink="http://www.w3.org/1999/xlink" width="700" zoomAndPan="magnify" viewBox="0 0 525 374.999991" height="500" preserveAspectRatio="xMidYMid meet" version="1.0"><defs><clipPath id="2efb915976"><path d="M 130.8125 125 L 145 125 L 145 144 L 130.8125 144 Z M 130.8125 125 " clip-rule="nonzero"/></clipPath><clipPath id="41c1a789d8"><path d="M 224 289 L 296 289 L 296 329.640625 L 224 329.640625 Z M 224 289 " clip-rule="nonzero"/></clipPath><clipPath id="0b311c2ee1"><path d="M 236 45.390625 L 288 45.390625 L 288 90 L 236 90 Z M 236 45.390625 " clip-rule="nonzero"/></clipPath></defs><rect x="-52.5" width="630" fill="#ffffff" y="-37.499999" height="449.999989" fill-opacity="1"/><rect x="-52.5" width="630" fill="#ff7714" y="-37.499999" height="449.999989" fill-opacity="1"/><path fill="#ffa584" d="M 279.160156 117.601562 C 274.117188 128.835938 286.53125 133.371094 293.503906 133.542969 C 303.878906 133.824219 323.949219 128.550781 323.949219 128.550781 C 323.949219 128.550781 330.46875 114.140625 322.023438 115.105469 C 305.46875 117.035156 287.78125 105.746094 279.160156 117.601562 Z M 279.160156 117.601562 " fill-opacity="1" fill-rule="evenodd"/><path fill="#ffa584" d="M 318.335938 121.175781 C 316.464844 135.753906 358.417969 128.324219 368.398438 135.1875 C 373.953125 132.066406 372.535156 125.316406 372.535156 125.316406 C 372.535156 125.316406 320.039062 102.570312 318.335938 121.175781 Z M 318.335938 121.175781 " fill-opacity="1" fill-rule="evenodd"/><path fill="#26213f" d="M 383.25 143.128906 L 391.867188 142.617188 C 393.058594 142.5625 394.023438 141.484375 393.910156 140.292969 L 393.113281 127.300781 C 393.058594 126.109375 391.980469 125.148438 390.789062 125.261719 L 382.171875 125.769531 C 380.984375 125.828125 380.019531 126.90625 380.132812 128.097656 L 380.925781 141.085938 C 380.984375 142.277344 382.058594 143.242188 383.25 143.128906 Z M 383.25 143.128906 " fill-opacity="1" fill-rule="evenodd"/><path fill="#26213f" d="M 351.445312 145.113281 L 360.0625 144.605469 C 361.253906 144.546875 362.21875 143.46875 362.105469 142.277344 L 361.308594 129.289062 C 361.253906 128.097656 360.175781 127.132812 358.984375 127.246094 L 350.367188 127.757812 C 349.179688 127.8125 348.214844 128.890625 348.328125 130.082031 L 349.121094 143.070312 C 349.179688 144.261719 350.253906 145.171875 351.445312 145.113281 Z M 351.445312 145.113281 " fill-opacity="1" fill-rule="evenodd"/><path fill="#26213f" d="M 353.882812 135.699219 L 383.476562 133.882812 C 384.667969 133.824219 385.632812 132.75 385.519531 131.558594 C 385.914062 137.683594 391.8125 128.949219 383.195312 129.515625 L 353.601562 131.328125 C 352.410156 131.386719 351.445312 132.464844 351.558594 133.65625 C 351.617188 134.847656 352.691406 135.753906 353.882812 135.699219 Z M 353.882812 135.699219 " fill-opacity="1" fill-rule="evenodd"/><path fill="#ffa584" d="M 365.902344 135.128906 C 367.375 137.625 373.839844 142.335938 376.617188 140.691406 C 382.117188 137.511719 380.640625 127.699219 378.035156 124.636719 C 375.9375 122.140625 368.964844 122.253906 364.9375 124.464844 C 360.914062 126.679688 360.574219 133.203125 365.902344 135.128906 Z M 365.902344 135.128906 " fill-opacity="1" fill-rule="evenodd"/><path fill="#ffa584" d="M 245.714844 117.601562 C 250.757812 128.835938 238.34375 133.371094 231.371094 133.542969 C 220.996094 133.824219 200.925781 128.550781 200.925781 128.550781 C 200.925781 128.550781 194.40625 114.140625 202.851562 115.105469 C 219.40625 117.035156 237.097656 105.746094 245.714844 117.601562 Z M 245.714844 117.601562 " fill-opacity="1" fill-rule="evenodd"/><path fill="#ffa584" d="M 206.539062 121.175781 C 208.410156 135.753906 166.457031 128.324219 156.480469 135.1875 C 150.921875 132.066406 152.339844 125.316406 152.339844 125.316406 C 152.339844 125.316406 204.835938 102.570312 206.539062 121.175781 Z M 206.539062 121.175781 " fill-opacity="1" fill-rule="evenodd"/><g clip-path="url(#2efb915976)"><path fill="#26213f" d="M 141.625 143.128906 L 133.007812 142.617188 C 131.816406 142.5625 130.851562 141.484375 130.964844 140.292969 L 131.761719 127.300781 C 131.816406 126.109375 132.894531 125.148438 134.085938 125.261719 L 142.703125 125.769531 C 143.894531 125.828125 144.855469 126.90625 144.742188 128.097656 L 143.949219 141.085938 C 143.894531 142.277344 142.816406 143.242188 141.625 143.128906 Z M 141.625 143.128906 " fill-opacity="1" fill-rule="evenodd"/></g><path fill="#26213f" d="M 173.429688 145.113281 L 164.8125 144.605469 C 163.621094 144.546875 162.65625 143.46875 162.769531 142.277344 L 163.566406 129.289062 C 163.621094 128.097656 164.699219 127.132812 165.890625 127.246094 L 174.507812 127.757812 C 175.699219 127.8125 176.660156 128.890625 176.546875 130.082031 L 175.753906 143.070312 C 175.699219 144.261719 174.621094 145.171875 173.429688 145.113281 Z M 173.429688 145.113281 " fill-opacity="1" fill-rule="evenodd"/><path fill="#26213f" d="M 170.992188 135.699219 L 141.398438 133.882812 C 140.207031 133.824219 139.242188 132.75 139.355469 131.558594 C 138.960938 137.683594 133.0625 128.949219 141.683594 129.515625 L 171.277344 131.328125 C 172.464844 131.386719 173.429688 132.464844 173.316406 133.65625 C 173.257812 134.847656 172.183594 135.753906 170.992188 135.699219 Z M 170.992188 135.699219 " fill-opacity="1" fill-rule="evenodd"/><path fill="#ffa584" d="M 158.972656 135.128906 C 157.5 137.625 151.035156 142.335938 148.257812 140.691406 C 142.757812 137.511719 144.234375 127.699219 146.839844 124.636719 C 148.9375 122.140625 155.910156 122.253906 159.9375 124.464844 C 163.960938 126.679688 164.300781 133.203125 158.972656 135.128906 Z M 158.972656 135.128906 " fill-opacity="1" fill-rule="evenodd"/><path fill="#ffa584" d="M 262.097656 202.179688 C 262.097656 205.867188 262.269531 227.648438 264.308594 227.367188 C 265.160156 231.054688 268.050781 248.242188 269.070312 250.394531 C 272.925781 254.421875 283.980469 252.949219 288.007812 248.015625 C 288.742188 247.105469 287.667969 243.816406 287.722656 242.796875 C 288.175781 236.15625 289.535156 223.621094 289.308594 217.835938 C 288.234375 210.972656 287.269531 193.953125 287.269531 193.953125 Z M 256.542969 201.894531 C 256.597656 205.582031 257.222656 229.125 255.179688 228.839844 C 254.386719 232.527344 252.96875 246.992188 250.476562 250.167969 C 245.996094 254.992188 232.503906 252.324219 231.144531 245.6875 C 230.066406 240.300781 229.5 223.792969 229.613281 217.949219 C 230.519531 211.085938 231.199219 194.011719 231.199219 194.011719 Z M 256.542969 201.894531 " fill-opacity="1" fill-rule="evenodd"/><path fill="#3f4a93" d="M 257.390625 233.09375 C 254.046875 233.433594 229.78125 231.675781 224.511719 229.40625 C 223.773438 202.179688 228.136719 177.617188 232.902344 165.988281 C 245.769531 166.667969 254.726562 168.03125 259.546875 172.457031 C 261.871094 166.386719 268.789062 166.386719 284.320312 165.25 C 289.308594 176.765625 294.753906 201.839844 294.527344 229.066406 C 289.308594 231.449219 265.953125 233.433594 262.609375 233.152344 C 261.871094 226.515625 261.585938 218.234375 261.132812 209.328125 C 260.054688 209.269531 259.035156 209.269531 258.921875 209.441406 C 258.527344 219.539062 257.84375 230.882812 257.390625 233.09375 Z M 257.390625 233.09375 " fill-opacity="1" fill-rule="evenodd"/><path fill="#d34646" d="M 252.6875 111.304688 C 249.226562 115.332031 246.109375 116.070312 246.109375 116.070312 C 271.734375 145 271.847656 130.421875 273.832031 113.800781 C 272.925781 112.496094 271.054688 111.988281 269.582031 111.589844 L 269.582031 96.445312 L 253.195312 97.578125 C 253.308594 102.742188 253.535156 107.960938 252.6875 111.304688 Z M 252.6875 111.304688 " fill-opacity="1" fill-rule="evenodd"/><path fill="#ff7714" d="M 229.273438 178.46875 C 245.316406 191.175781 286.417969 186.238281 289.082031 177.5625 C 289.992188 168.882812 288.0625 152.433594 288.234375 142.675781 C 289.933594 135.242188 290.953125 117.773438 288.6875 111.53125 C 286.476562 109.886719 272.414062 107.449219 269.523438 107.222656 C 268.558594 121.914062 255.40625 121.175781 252.96875 106.9375 C 243.277344 108.015625 233.636719 109.035156 231.425781 111.988281 C 230.804688 123.046875 230.292969 134.5625 232.105469 143.015625 C 232.730469 153.566406 229.273438 173.136719 229.273438 178.46875 Z M 229.273438 178.46875 " fill-opacity="1" fill-rule="evenodd"/><path fill="#26213f" d="M 272.871094 107.617188 C 272.1875 122.878906 252.574219 123.558594 249.226562 107.449219 C 248.832031 106.9375 252.234375 106.199219 253.308594 106.769531 C 256.996094 117.714844 267.257812 117.714844 269.46875 106.996094 C 270.941406 106.484375 272.074219 106.710938 272.871094 107.617188 Z M 272.871094 107.617188 " fill-opacity="1" fill-rule="evenodd"/><path fill="#ffa584" d="M 277.632812 296.457031 C 269.636719 316.652344 287.894531 310.355469 286.53125 302.527344 C 285.113281 294.699219 285.113281 299.238281 285.964844 298.386719 C 292.769531 266.902344 290.105469 255.105469 287.894531 244.496094 C 284.832031 240.582031 265.953125 240.695312 267.878906 247.21875 C 269.921875 254.421875 265.554688 269.625 277.632812 296.457031 Z M 242.085938 296.457031 C 250.078125 316.652344 231.824219 310.355469 233.183594 302.527344 C 234.601562 294.699219 234.601562 299.238281 233.75 298.386719 C 226.039062 261.515625 229.613281 255.105469 231.824219 244.496094 C 234.886719 240.582031 253.761719 240.695312 251.835938 247.21875 C 249.796875 254.421875 253.253906 274.730469 242.085938 296.457031 Z M 242.085938 296.457031 " fill-opacity="1" fill-rule="evenodd"/><g clip-path="url(#41c1a789d8)"><path fill="#3f4a93" d="M 226.382812 312.511719 C 228.648438 308.140625 228.988281 294.585938 232.164062 292.65625 C 236.019531 287.835938 241.574219 288.402344 244.578125 292.488281 C 248.492188 294.300781 247.640625 309.21875 250.871094 313.871094 C 254.105469 318.523438 252.234375 328.734375 244.238281 329.640625 L 230.859375 329.128906 C 221.5625 324.933594 224.339844 316.367188 226.382812 312.511719 Z M 293.335938 312.511719 C 291.066406 308.140625 291.351562 293.054688 287.550781 292.65625 C 283.699219 287.835938 278.140625 288.402344 275.136719 292.488281 C 271.226562 293.28125 272.074219 309.21875 268.84375 313.871094 C 265.613281 318.523438 267.484375 328.734375 275.476562 329.640625 L 288.855469 329.128906 C 298.152344 324.933594 295.375 316.367188 293.335938 312.511719 Z M 293.335938 312.511719 " fill-opacity="1" fill-rule="evenodd"/></g><g clip-path="url(#0b311c2ee1)"><path fill="#26213f" d="M 239.082031 80.730469 C 239.082031 80.730469 232.84375 62.351562 241.179688 60.367188 C 241.179688 60.367188 236.8125 51.347656 250.191406 49.136719 C 263.570312 47.035156 265.160156 47.148438 273.210938 46.300781 C 281.316406 45.390625 285.398438 46.414062 286.078125 48.679688 C 286.757812 50.949219 286.25 55.773438 284.09375 58.550781 C 284.09375 58.550781 293.335938 62.070312 282.960938 81.296875 L 261.191406 89.070312 Z M 239.082031 80.730469 " fill-opacity="1" fill-rule="evenodd"/></g><path fill="#ffa584" d="M 285.511719 88.277344 C 283.8125 91.28125 280.523438 92.644531 277.800781 91.621094 L 277.746094 92.359375 C 277.859375 96.726562 270.375 106.085938 261.757812 106.425781 C 253.140625 106.769531 244.351562 97.011719 244.636719 92.472656 L 244.578125 91.054688 C 244.464844 91.113281 244.351562 91.167969 244.238281 91.28125 C 241.40625 92.871094 237.664062 91.453125 235.847656 88.21875 C 234.035156 84.984375 234.828125 81.070312 237.664062 79.484375 C 239.703125 78.347656 242.199219 78.746094 244.125 80.277344 C 244.125 80.277344 244.863281 75.570312 245.429688 66.492188 C 245.429688 66.492188 262.039062 70.011719 276.042969 66.492188 C 276.042969 66.492188 276.554688 74.832031 278.199219 79.597656 C 279.957031 78.632812 281.996094 78.519531 283.640625 79.484375 C 286.53125 81.070312 287.324219 84.984375 285.511719 88.277344 Z M 285.511719 88.277344 " fill-opacity="1" fill-rule="evenodd"/><path fill="#d34646" d="M 279.730469 89.296875 C 287.210938 90.773438 286.703125 78.6875 280.351562 83 C 281.714844 83.851562 282.5625 87.085938 279.730469 89.296875 Z M 242.3125 89.238281 C 234.828125 90.714844 235.339844 78.632812 241.6875 82.945312 C 240.328125 83.792969 239.476562 87.085938 242.3125 89.238281 Z M 242.3125 89.238281 " fill-opacity="1" fill-rule="evenodd"/><path fill="#26213f" d="M 242.253906 61.613281 C 242.253906 61.613281 232.675781 59.914062 233.695312 56.394531 C 234.65625 52.878906 239.703125 54.863281 242.253906 61.613281 Z M 242.253906 61.613281 " fill-opacity="1" fill-rule="evenodd"/></svg>