<svg xmlns="http://www.w3.org/2000/svg" xmlns:xlink="http://www.w3.org/1999/xlink" width="700" zoomAndPan="magnify" viewBox="0 0 525 374.999991" height="500" preserveAspectRatio="xMidYMid meet" version="1.0"><rect x="-52.5" width="630" fill="#ffffff" y="-37.499999" height="449.999989" fill-opacity="1"/><rect x="-52.5" width="630" fill="#ff7714" y="-37.499999" height="449.999989" fill-opacity="1"/><path fill="#d34646" d="M 213.769531 154.09375 C 217.453125 175.464844 222.589844 193.605469 180.121094 167.007812 C 180.121094 167.007812 183.714844 164.960938 186.578125 158.734375 C 186.53125 157.050781 186.167969 155.140625 185.667969 153.050781 C 185.488281 152.230469 185.261719 151.410156 185.03125 150.59375 C 184.214844 147.683594 183.214844 144.546875 182.214844 141.453125 L 202.128906 134.132812 L 204.222656 141.179688 L 204.765625 143.089844 L 205.859375 146.773438 L 207.675781 152.957031 C 207.859375 152.957031 208.085938 152.957031 208.269531 152.957031 C 210.132812 152.820312 212.316406 152.914062 213.769531 154.09375 Z M 213.769531 154.09375 " fill-opacity="1" fill-rule="evenodd"/><path fill="#ff7714" d="M 186.441406 156.960938 C 186.441406 156.960938 192.351562 170.554688 205.8125 166.460938 C 219.273438 162.414062 209.359375 150.273438 209.359375 150.273438 C 209.359375 150.273438 221.683594 145.683594 228.003906 148.546875 C 232.824219 149.773438 238.007812 178.148438 243.917969 197.652344 C 246.554688 206.019531 255.285156 210.292969 255.832031 220.433594 C 252.648438 231.710938 208.769531 263.082031 195.171875 250.261719 C 192.625 216.023438 170.253906 199.289062 168.800781 175.917969 C 169.4375 164.324219 186.441406 156.960938 186.441406 156.960938 Z M 186.441406 156.960938 " fill-opacity="1" fill-rule="evenodd"/><path fill="#3f4a93" d="M 185.804688 156.140625 C 185.804688 156.140625 194.855469 169.28125 204.085938 165.371094 C 212.585938 161.777344 207.039062 150.730469 207.039062 150.730469 C 207.039062 150.730469 209.632812 148.457031 211.953125 150.003906 C 214.269531 151.546875 218.542969 166.644531 204.492188 169.871094 C 190.488281 173.101562 182.121094 159.003906 182.121094 159.003906 C 182.121094 159.003906 183.667969 154.730469 185.804688 156.140625 Z M 185.804688 156.140625 " fill-opacity="1" fill-rule="evenodd"/><path fill="#ffa584" d="M 257.695312 185.832031 C 257.695312 185.832031 261.421875 180.195312 265.46875 176.785156 C 280.839844 163.914062 284.386719 177.558594 283.566406 185.195312 C 283.25 188.332031 281.019531 193.515625 281.019531 193.515625 C 281.019531 193.515625 285.113281 212.386719 282.113281 218.34375 C 278.382812 225.84375 259.378906 213.660156 259.378906 213.660156 C 259.378906 213.660156 252.828125 205.15625 257.695312 185.832031 Z M 257.695312 185.832031 " fill-opacity="1" fill-rule="evenodd"/><path fill="#ffa584" d="M 325.628906 224.027344 C 328.539062 227.300781 331.722656 230.710938 335.539062 234.300781 C 340.679688 239.984375 323.035156 252.445312 316.761719 247.804688 C 313.578125 245.441406 309.894531 243.03125 306.03125 240.53125 C 289.34375 229.800781 269.515625 217.523438 273.335938 201.109375 C 264.96875 189.105469 267.242188 174.054688 275.335938 171.78125 C 284.523438 169.28125 295.433594 183.605469 295.34375 187.058594 C 309.167969 201.835938 315.304688 212.339844 325.628906 224.027344 Z M 325.628906 224.027344 " fill-opacity="1" fill-rule="evenodd"/><path fill="#3f4a93" d="M 222.5 270.359375 C 209.175781 250.714844 231.957031 213.613281 258.695312 184.105469 C 258.605469 193.605469 264.46875 221.933594 279.519531 220.480469 C 275.519531 280.589844 233.324219 286.273438 222.5 270.359375 Z M 222.5 270.359375 " fill-opacity="1" fill-rule="evenodd"/><path fill="#3f4a93" d="M 359.050781 217.386719 C 359.050781 217.386719 351 229.300781 346.542969 231.164062 C 342.132812 233.027344 334.3125 230.664062 332.085938 238.394531 C 329.855469 246.125 322.808594 245.53125 323.398438 252.671875 C 323.992188 259.808594 332.539062 278.453125 339.859375 277.496094 C 347.226562 276.542969 359.050781 217.386719 359.050781 217.386719 Z M 359.050781 217.386719 " fill-opacity="1" fill-rule="evenodd"/><path fill="#26213f" d="M 337.085938 275.679688 C 337.40625 276.042969 337.769531 276.359375 338.179688 276.632812 C 338.222656 276.679688 338.222656 276.679688 338.269531 276.722656 C 339.679688 277.722656 341.132812 277.859375 342.542969 277.316406 C 347.5 275.40625 352.636719 265.492188 358.683594 255.855469 C 378.78125 236.710938 380.554688 220.84375 372.871094 214.613281 C 372.691406 214.566406 370.917969 213.339844 370.734375 213.339844 C 354.910156 209.976562 355.730469 230.574219 346.589844 246.53125 C 336.675781 258.71875 332.675781 270.769531 337.085938 275.679688 Z M 337.085938 275.679688 " fill-opacity="1" fill-rule="evenodd"/><path fill="#ffa584" d="M 230.003906 203.65625 C 230.003906 203.65625 233.730469 198.019531 237.777344 194.609375 C 253.148438 181.738281 256.695312 195.378906 255.875 203.019531 C 255.558594 206.15625 253.328125 211.339844 253.328125 211.339844 C 253.328125 211.339844 257.421875 230.210938 254.421875 236.164062 C 250.691406 243.667969 231.6875 231.484375 231.6875 231.484375 C 231.6875 231.484375 225.136719 222.980469 230.003906 203.65625 Z M 230.003906 203.65625 " fill-opacity="1" fill-rule="evenodd"/><path fill="#ffa584" d="M 309.804688 268.449219 C 309.257812 269.039062 308.894531 269.539062 308.667969 269.949219 C 308.484375 270.269531 308.257812 270.585938 307.984375 270.859375 C 304.9375 274.085938 299.027344 274.042969 289.160156 265.585938 C 286.476562 263.265625 283.023438 261.265625 279.566406 259.082031 C 279.15625 258.855469 278.746094 258.582031 278.382812 258.355469 C 261.695312 247.625 241.824219 235.347656 245.691406 218.933594 C 237.324219 206.929688 239.597656 191.878906 247.691406 189.605469 C 256.875 187.105469 267.789062 201.472656 267.699219 204.882812 C 280.703125 218.796875 286.886719 228.890625 296.164062 239.804688 C 296.753906 240.484375 297.300781 241.167969 297.9375 241.851562 C 300.847656 245.125 304.300781 248.441406 308.121094 252.082031 C 310.667969 254.898438 311.394531 263.449219 309.804688 268.449219 Z M 309.804688 268.449219 " fill-opacity="1" fill-rule="evenodd"/><path fill="#3f4a93" d="M 201.902344 265.175781 C 190.988281 244.125 204.265625 231.4375 231.003906 201.929688 C 230.914062 211.429688 236.777344 239.757812 251.828125 238.304688 C 242.324219 287.953125 210.359375 281.589844 201.902344 265.175781 Z M 201.902344 265.175781 " fill-opacity="1" fill-rule="evenodd"/><path fill="#3f4a93" d="M 330.765625 234.757812 C 330.765625 234.757812 322.71875 246.667969 318.261719 248.535156 C 313.851562 250.398438 306.03125 248.035156 303.800781 255.761719 C 301.574219 263.492188 294.527344 262.902344 295.117188 270.039062 C 295.707031 277.179688 304.257812 295.820312 311.578125 294.867188 C 318.945312 293.910156 330.765625 234.757812 330.765625 234.757812 Z M 330.765625 234.757812 " fill-opacity="1" fill-rule="evenodd"/><path fill="#26213f" d="M 308.804688 293.046875 C 309.121094 293.410156 309.484375 293.730469 309.894531 294.003906 C 309.941406 294.046875 309.941406 294.046875 309.984375 294.09375 C 311.394531 295.09375 312.851562 295.230469 314.261719 294.683594 C 319.214844 292.773438 324.355469 282.863281 330.402344 273.222656 C 350.5 254.082031 352.273438 238.210938 344.589844 231.984375 C 344.453125 231.9375 342.632812 230.710938 342.453125 230.710938 C 326.628906 227.34375 327.445312 247.941406 318.308594 263.902344 C 308.347656 276.085938 304.347656 288.136719 308.804688 293.046875 Z M 308.804688 293.046875 " fill-opacity="1" fill-rule="evenodd"/><path fill="#ffa584" d="M 175.394531 212.75 C 189.261719 188.925781 183.257812 175.648438 176.621094 170.917969 C 167.980469 166.417969 154.929688 179.421875 155.929688 200.019531 C 155.160156 204.109375 151.65625 211.292969 150.476562 223.253906 C 149.292969 235.210938 165.253906 229.527344 169.710938 227.207031 C 171.4375 223.34375 174.027344 216.113281 175.394531 212.75 Z M 175.394531 212.75 " fill-opacity="1" fill-rule="evenodd"/><path fill="#ffa584" d="M 252.421875 179.058594 C 250.054688 148.59375 236.277344 147.410156 228.183594 147.683594 C 221.5 148.230469 226.730469 160.597656 232.867188 179.058594 C 234.730469 182.785156 228.910156 186.921875 235.230469 197.152344 C 241.550781 207.382812 250.464844 197.515625 252.601562 192.96875 C 253.328125 188.96875 253.421875 182.511719 252.421875 179.058594 Z M 252.421875 179.058594 " fill-opacity="1" fill-rule="evenodd"/><path fill="#ffa584" d="M 247.828125 180.101562 C 236.734375 171.554688 227.273438 188.332031 213.132812 220.023438 C 213.132812 220.023438 208.90625 224.390625 212.679688 228.710938 C 216.453125 233.074219 222 228.164062 224.546875 225.527344 C 245.234375 204.019531 259.105469 188.789062 247.828125 180.101562 Z M 247.828125 180.101562 " fill-opacity="1" fill-rule="evenodd"/><path fill="#ffa584" d="M 217.679688 226.753906 C 221.636719 229.753906 212.496094 243.121094 212.496094 243.121094 C 211.90625 244.441406 209.996094 245.261719 208.675781 243.621094 C 206.585938 246.578125 204.585938 246.488281 203.492188 245.941406 C 200.765625 250.488281 198.445312 246.667969 199.355469 242.988281 C 198.945312 243.757812 198.039062 248.304688 195.765625 249.214844 C 192.898438 249.398438 193.171875 245.351562 193.855469 241.484375 C 194.535156 237.621094 196.765625 234.027344 197.128906 233.121094 Z M 217.679688 226.753906 " fill-opacity="1" fill-rule="evenodd"/><path fill="#ffa584" d="M 209.585938 222.890625 L 221.226562 218.980469 C 218.089844 218.070312 211.816406 221.523438 209.585938 222.890625 Z M 221.226562 219.070312 L 209.632812 223.117188 C 209.632812 223.117188 209.585938 223.027344 209.585938 223.027344 C 209.585938 223.027344 209.585938 222.980469 209.542969 222.980469 C 201.8125 228.527344 197.128906 233.074219 197.128906 233.074219 C 194.445312 238.394531 201.765625 233.300781 202.175781 233.390625 C 207.269531 234.894531 212.722656 236.894531 215.769531 236.347656 C 216.042969 236.484375 225.363281 229.210938 221.726562 219.207031 C 221.546875 219.160156 221.410156 219.113281 221.226562 219.070312 Z M 221.226562 219.070312 " fill-opacity="1" fill-rule="evenodd"/><path fill="#26213f" d="M 241.234375 266.585938 C 241.144531 266.628906 241.050781 266.585938 240.960938 266.539062 C 240.734375 266.449219 240.597656 266.175781 240.734375 265.949219 C 240.78125 265.855469 245.644531 254.535156 249.691406 242.621094 C 249.78125 242.394531 250.054688 242.257812 250.28125 242.351562 C 250.511719 242.441406 250.648438 242.714844 250.554688 242.941406 C 246.464844 254.898438 241.644531 266.222656 241.550781 266.355469 C 241.507812 266.449219 241.371094 266.539062 241.234375 266.585938 Z M 241.234375 266.585938 " fill-opacity="1" fill-rule="nonzero"/><path fill="#ffa584" d="M 188.304688 247.988281 L 188.351562 247.988281 C 191.125 250.671875 195.308594 254.21875 196.671875 254.761719 C 199.675781 255.945312 197.902344 250.308594 200.949219 249.488281 C 202.585938 249.035156 206.175781 244.894531 206.539062 243.894531 C 206.585938 244.078125 206.632812 244.03125 206.722656 243.941406 C 208.222656 244.214844 209.40625 244.125 209.722656 243.304688 C 210.496094 241.121094 199.71875 235.53125 197.902344 235.484375 C 196.492188 235.347656 193.992188 235.574219 191.582031 236.03125 C 172.753906 216.207031 164.023438 203.929688 150.839844 223.117188 C 144.335938 232.527344 166.707031 241.394531 188.304688 247.988281 Z M 188.304688 247.988281 " fill-opacity="1" fill-rule="evenodd"/><path fill="#ffa584" d="M 200.175781 254.535156 C 200.902344 254.855469 203.039062 254.488281 204.265625 252.351562 C 206.496094 252.351562 207.722656 250.214844 208.175781 247.304688 C 211.359375 246.53125 210.3125 240.210938 209.679688 239.304688 C 207.269531 236.800781 201.8125 235.4375 201.402344 239.847656 C 199.765625 240.121094 198.992188 241.941406 199.445312 243.167969 C 198.71875 242.621094 196.535156 245.078125 197.21875 246.167969 C 196.808594 246.261719 193.808594 247.488281 196.671875 249.898438 C 197.21875 250.488281 197.945312 251.761719 197.902344 251.898438 C 197.402344 252.761719 196.308594 254.21875 196.628906 254.71875 C 197.035156 255.261719 198.171875 255.398438 200.175781 254.535156 Z M 200.175781 254.535156 " fill-opacity="1" fill-rule="evenodd"/><path fill="#26213f" d="M 163.253906 136.5 C 163.253906 136.5 148.929688 118.039062 157.613281 112.492188 C 157.613281 112.492188 149.066406 103.898438 163.523438 96.167969 C 177.9375 88.390625 181.667969 93.347656 190.535156 89.121094 C 199.402344 84.9375 202.585938 79.070312 204.265625 81.390625 C 205.949219 83.707031 207.3125 89.4375 205.902344 93.4375 C 205.902344 93.4375 212.953125 98.078125 213.589844 119.765625 L 191.808594 137.269531 Z M 163.253906 136.5 " fill-opacity="1" fill-rule="evenodd"/><path fill="#ffa584" d="M 219.226562 126.769531 C 218.5 130.859375 215.269531 133.769531 211.769531 133.632812 L 212.042969 134.496094 C 213.90625 139.453125 209.085938 153.050781 199.355469 156.867188 C 189.671875 160.6875 175.757812 153.003906 174.300781 147.730469 L 173.664062 146.136719 C 173.574219 146.273438 173.484375 146.363281 173.390625 146.5 C 170.800781 149.410156 165.980469 149.320312 162.617188 146.320312 C 159.25 143.320312 158.613281 138.542969 161.207031 135.632812 C 163.070312 133.542969 166.117188 132.996094 168.890625 133.996094 C 168.890625 133.996094 167.84375 128.3125 164.980469 117.765625 C 164.980469 117.765625 185.304688 115.21875 199.945312 105.714844 C 199.945312 105.714844 203.8125 114.992188 207.539062 119.8125 C 209.132812 118.039062 211.449219 117.082031 213.726562 117.492188 C 217.589844 118.21875 220.046875 122.359375 219.226562 126.769531 Z M 219.226562 126.769531 " fill-opacity="1" fill-rule="evenodd"/><path fill="#d34646" d="M 212.996094 130.222656 C 222.136719 128.996094 216.816406 115.402344 211.222656 122.8125 C 213.132812 123.265625 215.40625 126.632812 212.996094 130.222656 Z M 170.34375 144.957031 C 162.386719 149.59375 158.203125 135.632812 167.164062 138.042969 C 165.933594 139.5 166.253906 143.589844 170.34375 144.957031 Z M 170.34375 144.957031 " fill-opacity="1" fill-rule="evenodd"/><path fill="#26213f" d="M 250.828125 237.484375 C 250.691406 237.484375 250.601562 237.4375 250.511719 237.347656 C 247.875 234.394531 245.328125 229.300781 245.234375 229.074219 C 245.144531 228.84375 245.234375 228.574219 245.464844 228.480469 C 245.691406 228.390625 245.964844 228.480469 246.054688 228.710938 C 246.101562 228.753906 248.644531 233.890625 251.191406 236.757812 C 251.375 236.9375 251.328125 237.210938 251.148438 237.394531 C 251.054688 237.4375 250.917969 237.484375 250.828125 237.484375 Z M 250.828125 237.484375 " fill-opacity="1" fill-rule="nonzero"/><path fill="#26213f" d="M 234.09375 215.886719 C 234.003906 215.886719 233.867188 215.839844 233.777344 215.796875 C 233.59375 215.613281 233.550781 215.339844 233.730469 215.160156 C 233.824219 215.070312 241.824219 205.976562 247.875 200.019531 C 253.695312 194.335938 252.421875 190.96875 252.421875 190.925781 C 252.328125 190.695312 252.421875 190.425781 252.691406 190.332031 C 252.921875 190.242188 253.191406 190.332031 253.285156 190.605469 C 253.328125 190.789062 254.785156 194.5625 248.507812 200.699219 C 242.507812 206.609375 234.503906 215.703125 234.414062 215.796875 C 234.367188 215.839844 234.230469 215.886719 234.09375 215.886719 Z M 234.09375 215.886719 " fill-opacity="1" fill-rule="nonzero"/><path fill="#26213f" d="M 283.703125 225.027344 C 283.566406 225.027344 283.429688 224.980469 283.339844 224.84375 L 267.289062 205.203125 C 267.242188 205.15625 267.242188 205.109375 267.242188 205.109375 C 267.199219 205.066406 264.605469 198.882812 259.46875 194.152344 C 259.285156 193.972656 259.285156 193.699219 259.421875 193.515625 C 259.605469 193.335938 259.878906 193.335938 260.058594 193.472656 C 265.152344 198.152344 267.742188 203.972656 268.0625 204.703125 L 284.066406 224.34375 C 284.203125 224.527344 284.203125 224.84375 284.023438 224.980469 C 283.929688 224.980469 283.796875 225.027344 283.703125 225.027344 Z M 283.703125 225.027344 " fill-opacity="1" fill-rule="nonzero"/></svg>