<svg xmlns="http://www.w3.org/2000/svg" xmlns:xlink="http://www.w3.org/1999/xlink" width="1080" zoomAndPan="magnify" viewBox="0 0 810 809.999993" height="1080" preserveAspectRatio="xMidYMid meet" version="1.0"><defs><clipPath id="cf5d3b72f8"><path d="M 33.074219 36.636719 L 773.757812 36.636719 L 773.757812 777.324219 L 33.074219 777.324219 Z M 33.074219 36.636719 " clip-rule="nonzero"/></clipPath><clipPath id="a963cdad92"><path d="M 403.414062 36.636719 C 198.882812 36.636719 33.074219 202.445312 33.074219 406.980469 C 33.074219 611.515625 198.882812 777.324219 403.414062 777.324219 C 607.949219 777.324219 773.757812 611.515625 773.757812 406.980469 C 773.757812 202.445312 607.949219 36.636719 403.414062 36.636719 Z M 403.414062 36.636719 " clip-rule="nonzero"/></clipPath></defs><g clip-path="url(#cf5d3b72f8)"><g clip-path="url(#a963cdad92)"><path fill="#c1ff72" d="M 33.074219 36.636719 L 773.757812 36.636719 L 773.757812 777.324219 L 33.074219 777.324219 Z M 33.074219 36.636719 " fill-opacity="1" fill-rule="nonzero"/></g></g><path fill="#15234d" d="M 757.867188 301.585938 C 757.632812 300.785156 757.324219 300.015625 756.9375 299.273438 C 756.550781 298.535156 756.097656 297.839844 755.574219 297.1875 C 755.050781 296.535156 754.46875 295.941406 753.832031 295.40625 C 753.191406 294.871094 752.503906 294.402344 751.773438 294 C 751.042969 293.597656 750.277344 293.273438 749.480469 293.019531 C 748.683594 292.769531 747.871094 292.597656 747.042969 292.507812 C 746.210938 292.417969 745.382812 292.410156 744.550781 292.480469 C 743.71875 292.554688 742.902344 292.707031 742.101562 292.941406 C 741.296875 293.175781 740.527344 293.484375 739.785156 293.871094 C 739.046875 294.257812 738.351562 294.710938 737.699219 295.234375 C 737.050781 295.753906 736.457031 296.335938 735.917969 296.976562 C 735.382812 297.617188 734.914062 298.300781 734.511719 299.035156 C 734.109375 299.765625 733.785156 300.53125 733.535156 301.328125 C 733.28125 302.121094 733.113281 302.933594 733.019531 303.765625 C 732.929688 304.59375 732.921875 305.425781 732.992188 306.257812 C 733.066406 307.089844 733.21875 307.90625 733.453125 308.707031 C 738.171875 324.640625 741.726562 340.828125 744.109375 357.273438 C 746.496094 373.714844 747.691406 390.246094 747.695312 406.863281 C 747.695312 412.304688 747.566406 417.746094 747.308594 423.183594 C 747.046875 428.621094 746.660156 434.046875 746.140625 439.464844 C 745.621094 444.882812 744.972656 450.289062 744.195312 455.675781 C 743.417969 461.0625 742.511719 466.429688 741.480469 471.773438 C 740.445312 477.117188 739.285156 482.433594 737.996094 487.722656 C 736.710938 493.007812 735.296875 498.265625 733.757812 503.484375 C 732.214844 508.707031 730.554688 513.886719 728.765625 519.027344 C 726.980469 524.171875 725.070312 529.265625 723.039062 534.316406 C 721.007812 539.367188 718.859375 544.363281 716.585938 549.3125 C 714.316406 554.257812 711.929688 559.148438 709.425781 563.980469 C 706.921875 568.816406 704.304688 573.585938 701.574219 578.292969 C 698.839844 583 696 587.640625 693.042969 592.214844 C 690.089844 596.785156 687.027344 601.285156 683.859375 605.710938 C 680.691406 610.132812 677.417969 614.480469 674.039062 618.75 C 670.664062 623.019531 667.1875 627.207031 663.609375 631.308594 C 660.03125 635.410156 656.359375 639.425781 652.589844 643.351562 C 646.511719 637.78125 640.257812 632.421875 633.820312 627.273438 C 627.382812 622.125 620.78125 617.199219 614.011719 612.496094 C 607.242188 607.789062 600.324219 603.316406 593.253906 599.078125 C 586.183594 594.839844 578.980469 590.839844 571.644531 587.085938 C 564.304688 583.332031 556.847656 579.828125 549.273438 576.574219 C 541.703125 573.320312 534.027344 570.324219 526.25 567.589844 C 518.476562 564.851562 510.617188 562.378906 502.675781 560.167969 C 494.734375 557.960938 486.726562 556.019531 478.65625 554.351562 C 481.402344 552.972656 484.105469 551.515625 486.769531 549.984375 C 489.429688 548.453125 492.050781 546.851562 494.625 545.171875 C 497.199219 543.496094 499.722656 541.75 502.199219 539.929688 C 504.675781 538.113281 507.101562 536.230469 509.472656 534.277344 C 511.84375 532.324219 514.160156 530.304688 516.417969 528.222656 C 518.675781 526.140625 520.875 524 523.015625 521.792969 C 525.15625 519.589844 527.230469 517.328125 529.246094 515.007812 C 531.257812 512.6875 533.207031 510.3125 535.085938 507.882812 C 536.96875 505.453125 538.78125 502.976562 540.523438 500.445312 C 542.265625 497.914062 543.9375 495.339844 545.535156 492.714844 C 547.132812 490.09375 548.660156 487.425781 550.109375 484.71875 C 551.558594 482.011719 552.933594 479.265625 554.230469 476.480469 C 555.527344 473.695312 556.746094 470.875 557.886719 468.023438 C 559.027344 465.171875 560.085938 462.289062 561.066406 459.378906 C 562.046875 456.464844 562.941406 453.527344 563.757812 450.566406 C 564.574219 447.605469 565.308594 444.621094 565.957031 441.621094 C 566.605469 438.617188 567.171875 435.597656 567.652344 432.566406 C 568.132812 429.53125 568.53125 426.484375 568.839844 423.429688 C 569.152344 420.375 569.378906 417.3125 569.519531 414.242188 C 569.660156 411.171875 569.714844 408.101562 569.683594 405.03125 C 569.652344 401.957031 569.535156 398.890625 569.335938 395.824219 C 569.132812 392.757812 568.847656 389.703125 568.472656 386.652344 C 568.101562 383.601562 567.644531 380.566406 567.101562 377.542969 C 566.5625 374.519531 565.9375 371.511719 565.226562 368.523438 C 564.519531 365.535156 563.726562 362.566406 562.851562 359.621094 C 561.976562 356.675781 561.019531 353.757812 559.984375 350.867188 C 558.945312 347.976562 557.828125 345.117188 556.632812 342.285156 C 555.433594 339.457031 554.160156 336.664062 552.808594 333.90625 C 551.457031 331.144531 550.027344 328.429688 548.523438 325.75 C 547.019531 323.070312 545.441406 320.4375 543.789062 317.84375 C 542.140625 315.253906 540.417969 312.710938 538.625 310.21875 C 536.832031 307.722656 534.96875 305.28125 533.042969 302.890625 C 531.113281 300.5 529.117188 298.164062 527.058594 295.882812 C 525 293.605469 522.878906 291.382812 520.695312 289.222656 C 518.511719 287.0625 516.269531 284.960938 513.96875 282.925781 C 511.671875 280.890625 509.316406 278.917969 506.90625 277.011719 C 504.496094 275.109375 502.035156 273.269531 499.523438 271.503906 C 497.007812 269.734375 494.449219 268.039062 491.84375 266.414062 C 489.234375 264.789062 486.585938 263.238281 483.890625 261.761719 C 481.199219 260.28125 478.464844 258.882812 475.695312 257.558594 C 472.921875 256.230469 470.117188 254.984375 467.277344 253.816406 C 464.433594 252.648438 461.5625 251.558594 458.660156 250.550781 C 455.757812 249.542969 452.832031 248.617188 449.878906 247.769531 C 446.925781 246.925781 443.949219 246.164062 440.953125 245.484375 C 437.957031 244.804688 434.945312 244.210938 431.917969 243.699219 C 428.886719 243.1875 425.847656 242.761719 422.792969 242.417969 C 419.738281 242.078125 416.679688 241.820312 413.613281 241.648438 C 410.546875 241.476562 407.476562 241.390625 404.402344 241.390625 C 401.332031 241.390625 398.261719 241.476562 395.195312 241.648438 C 392.128906 241.820312 389.066406 242.078125 386.015625 242.417969 C 382.960938 242.761719 379.921875 243.1875 376.890625 243.699219 C 373.863281 244.210938 370.847656 244.804688 367.851562 245.484375 C 364.855469 246.164062 361.882812 246.925781 358.929688 247.769531 C 355.976562 248.617188 353.046875 249.542969 350.144531 250.550781 C 347.246094 251.558594 344.371094 252.648438 341.53125 253.816406 C 338.691406 254.984375 335.882812 256.230469 333.113281 257.558594 C 330.339844 258.882812 327.609375 260.28125 324.914062 261.761719 C 322.222656 263.238281 319.570312 264.789062 316.964844 266.414062 C 314.355469 268.039062 311.796875 269.734375 309.285156 271.503906 C 306.773438 273.269531 304.3125 275.109375 301.902344 277.011719 C 299.492188 278.917969 297.136719 280.890625 294.835938 282.925781 C 292.535156 284.960938 290.292969 287.0625 288.113281 289.222656 C 285.929688 291.382812 283.808594 293.605469 281.75 295.882812 C 279.6875 298.164062 277.695312 300.5 275.765625 302.890625 C 273.835938 305.28125 271.976562 307.722656 270.183594 310.21875 C 268.390625 312.710938 266.667969 315.253906 265.015625 317.84375 C 263.367188 320.4375 261.789062 323.070312 260.285156 325.75 C 258.78125 328.429688 257.351562 331.144531 256 333.90625 C 254.644531 336.664062 253.371094 339.457031 252.175781 342.285156 C 250.976562 345.117188 249.859375 347.976562 248.824219 350.867188 C 247.785156 353.757812 246.832031 356.675781 245.957031 359.621094 C 245.082031 362.566406 244.289062 365.535156 243.578125 368.523438 C 242.871094 371.511719 242.246094 374.519531 241.703125 377.542969 C 241.164062 380.566406 240.707031 383.601562 240.332031 386.652344 C 239.960938 389.703125 239.675781 392.757812 239.472656 395.824219 C 239.269531 398.890625 239.152344 401.957031 239.125 405.03125 C 239.09375 408.101562 239.148438 411.171875 239.289062 414.242188 C 239.429688 417.3125 239.65625 420.375 239.964844 423.429688 C 240.277344 426.484375 240.671875 429.53125 241.15625 432.566406 C 241.636719 435.597656 242.199219 438.617188 242.851562 441.621094 C 243.5 444.621094 244.230469 447.605469 245.046875 450.566406 C 245.863281 453.527344 246.761719 456.464844 247.742188 459.378906 C 248.71875 462.289062 249.78125 465.171875 250.921875 468.023438 C 252.058594 470.875 253.277344 473.695312 254.578125 476.480469 C 255.875 479.265625 257.246094 482.011719 258.699219 484.71875 C 260.148438 487.425781 261.671875 490.09375 263.273438 492.714844 C 264.871094 495.339844 266.542969 497.914062 268.285156 500.445312 C 270.027344 502.976562 271.839844 505.453125 273.71875 507.882812 C 275.601562 510.3125 277.546875 512.6875 279.5625 515.007812 C 281.574219 517.328125 283.652344 519.589844 285.789062 521.792969 C 287.929688 524 290.128906 526.140625 292.390625 528.222656 C 294.648438 530.304688 296.964844 532.324219 299.335938 534.277344 C 301.707031 536.230469 304.128906 538.113281 306.605469 539.929688 C 309.082031 541.75 311.609375 543.496094 314.183594 545.171875 C 316.757812 546.851562 319.375 548.453125 322.039062 549.984375 C 324.703125 551.515625 327.40625 552.972656 330.152344 554.351562 C 322.082031 556.027344 314.078125 557.972656 306.136719 560.1875 C 298.199219 562.402344 290.339844 564.878906 282.566406 567.617188 C 274.792969 570.359375 267.121094 573.355469 259.546875 576.609375 C 251.976562 579.867188 244.519531 583.371094 237.183594 587.125 C 229.847656 590.878906 222.640625 594.875 215.574219 599.113281 C 208.503906 603.351562 201.582031 607.820312 194.8125 612.523438 C 188.042969 617.222656 181.4375 622.144531 175 627.289062 C 168.558594 632.433594 162.296875 637.789062 156.21875 643.351562 C 152.890625 639.863281 149.636719 636.308594 146.460938 632.683594 C 143.28125 629.054688 140.183594 625.367188 137.160156 621.609375 C 134.140625 617.851562 131.199219 614.035156 128.339844 610.15625 C 125.476562 606.273438 122.699219 602.335938 120.003906 598.339844 C 117.3125 594.34375 114.703125 590.289062 112.179688 586.183594 C 109.65625 582.074219 107.21875 577.917969 104.871094 573.707031 C 102.519531 569.496094 100.261719 565.238281 98.09375 560.933594 C 95.925781 556.628906 93.847656 552.28125 91.863281 547.886719 C 89.875 543.496094 87.984375 539.0625 86.183594 534.589844 C 84.386719 530.117188 82.683594 525.609375 81.074219 521.0625 C 79.464844 516.519531 77.953125 511.945312 76.539062 507.335938 C 75.121094 502.726562 73.804688 498.089844 72.582031 493.429688 C 71.363281 488.765625 70.242188 484.078125 69.21875 479.367188 C 68.195312 474.65625 67.273438 469.925781 66.449219 465.175781 C 65.628906 460.425781 64.90625 455.660156 64.28125 450.878906 C 63.660156 446.097656 63.140625 441.308594 62.71875 436.507812 C 62.296875 431.703125 61.980469 426.894531 61.761719 422.078125 C 61.542969 417.261719 61.429688 412.445312 61.414062 407.625 C 61.398438 402.804688 61.488281 397.984375 61.675781 393.167969 C 61.863281 388.351562 62.152344 383.539062 62.546875 378.734375 C 62.9375 373.929688 63.429688 369.136719 64.023438 364.351562 C 64.617188 359.570312 65.3125 354.800781 66.105469 350.042969 C 66.902344 345.289062 67.796875 340.554688 68.789062 335.835938 C 69.785156 331.121094 70.878906 326.425781 72.070312 321.753906 C 73.261719 317.085938 74.550781 312.441406 75.941406 307.824219 C 77.328125 303.207031 78.8125 298.621094 80.394531 294.070312 C 81.976562 289.515625 83.652344 284.996094 85.425781 280.511719 C 87.195312 276.03125 89.0625 271.585938 91.023438 267.179688 C 92.980469 262.777344 95.03125 258.414062 97.175781 254.097656 C 99.320312 249.78125 101.550781 245.507812 103.875 241.285156 C 106.199219 237.0625 108.609375 232.886719 111.109375 228.765625 C 113.609375 224.644531 116.191406 220.574219 118.863281 216.5625 C 121.535156 212.550781 124.289062 208.59375 127.125 204.695312 C 129.960938 200.800781 132.878906 196.964844 135.878906 193.191406 C 138.878906 189.414062 141.957031 185.707031 145.113281 182.0625 C 148.265625 178.417969 151.496094 174.839844 154.804688 171.332031 C 158.109375 167.824219 161.488281 164.386719 164.941406 161.023438 C 168.390625 157.65625 171.910156 154.363281 175.5 151.148438 C 179.09375 147.929688 182.746094 144.789062 186.46875 141.726562 C 190.191406 138.664062 193.976562 135.679688 197.824219 132.777344 C 201.675781 129.871094 205.582031 127.050781 209.546875 124.3125 C 213.515625 121.574219 217.539062 118.921875 221.617188 116.351562 C 225.695312 113.78125 229.828125 111.300781 234.011719 108.90625 C 238.195312 106.507812 242.425781 104.203125 246.707031 101.988281 C 250.988281 99.769531 255.3125 97.644531 259.683594 95.609375 C 264.054688 93.578125 268.464844 91.636719 272.917969 89.785156 C 277.371094 87.9375 281.859375 86.183594 286.386719 84.527344 C 290.914062 82.867188 295.472656 81.304688 300.0625 79.835938 C 304.65625 78.371094 309.277344 77 313.925781 75.730469 C 318.578125 74.457031 323.25 73.285156 327.949219 72.207031 C 332.648438 71.132812 337.371094 70.160156 342.109375 69.28125 C 346.851562 68.40625 351.605469 67.628906 356.378906 66.957031 C 361.152344 66.28125 365.9375 65.707031 370.734375 65.230469 C 375.53125 64.757812 380.339844 64.386719 385.152344 64.113281 C 389.964844 63.84375 394.78125 63.675781 399.601562 63.605469 C 404.421875 63.539062 409.242188 63.570312 414.058594 63.707031 C 418.878906 63.84375 423.691406 64.078125 428.5 64.417969 C 433.308594 64.753906 438.109375 65.195312 442.898438 65.734375 C 447.691406 66.277344 452.464844 66.917969 457.230469 67.660156 C 461.992188 68.402344 466.738281 69.242188 471.464844 70.183594 C 476.195312 71.125 480.898438 72.167969 485.582031 73.308594 C 490.265625 74.449219 494.925781 75.6875 499.554688 77.023438 C 504.1875 78.359375 508.789062 79.792969 513.359375 81.324219 C 517.929688 82.855469 522.46875 84.480469 526.972656 86.203125 C 527.753906 86.503906 528.5625 86.722656 529.390625 86.863281 C 530.214844 87.003906 531.050781 87.0625 531.890625 87.039062 C 532.726562 87.015625 533.558594 86.910156 534.375 86.722656 C 535.195312 86.535156 535.984375 86.269531 536.753906 85.929688 C 537.519531 85.585938 538.242188 85.171875 538.929688 84.6875 C 539.613281 84.199219 540.246094 83.652344 540.820312 83.042969 C 541.398438 82.433594 541.910156 81.773438 542.359375 81.0625 C 542.804688 80.351562 543.179688 79.605469 543.480469 78.820312 C 543.78125 78.039062 544 77.230469 544.140625 76.40625 C 544.285156 75.578125 544.34375 74.746094 544.320312 73.90625 C 544.300781 73.066406 544.195312 72.238281 544.011719 71.417969 C 543.824219 70.601562 543.5625 69.808594 543.21875 69.039062 C 542.878906 68.273438 542.464844 67.546875 541.980469 66.863281 C 541.496094 66.175781 540.949219 65.542969 540.34375 64.964844 C 539.734375 64.386719 539.074219 63.875 538.363281 63.425781 C 537.65625 62.976562 536.910156 62.601562 536.125 62.300781 C 529.710938 59.851562 523.230469 57.582031 516.691406 55.492188 C 510.148438 53.40625 503.550781 51.5 496.902344 49.78125 C 490.253906 48.0625 483.5625 46.53125 476.832031 45.1875 C 470.097656 43.839844 463.328125 42.683594 456.53125 41.71875 C 449.730469 40.75 442.910156 39.972656 436.070312 39.390625 C 429.226562 38.804688 422.375 38.410156 415.511719 38.207031 C 408.644531 38.003906 401.78125 37.996094 394.917969 38.175781 C 388.050781 38.355469 381.199219 38.730469 374.355469 39.292969 C 367.511719 39.859375 360.6875 40.613281 353.886719 41.5625 C 347.082031 42.507812 340.3125 43.640625 333.574219 44.96875 C 326.835938 46.292969 320.140625 47.804688 313.488281 49.503906 C 306.835938 51.203125 300.234375 53.085938 293.683594 55.152344 C 287.136719 57.222656 280.652344 59.46875 274.230469 61.902344 C 267.804688 64.332031 261.457031 66.941406 255.179688 69.726562 C 248.902344 72.511719 242.707031 75.46875 236.597656 78.601562 C 230.484375 81.734375 224.46875 85.035156 218.539062 88.503906 C 212.613281 91.972656 206.789062 95.601562 201.0625 99.398438 C 195.339844 103.191406 189.726562 107.140625 184.222656 111.25 C 178.722656 115.359375 173.335938 119.617188 168.074219 124.027344 C 162.808594 128.433594 157.671875 132.988281 152.660156 137.683594 C 147.648438 142.378906 142.773438 147.210938 138.035156 152.183594 C 133.292969 157.152344 128.699219 162.246094 124.242188 167.472656 C 119.789062 172.699219 115.480469 178.046875 111.324219 183.511719 C 107.167969 188.980469 103.167969 194.558594 99.324219 200.25 C 95.480469 205.9375 91.796875 211.730469 88.277344 217.628906 C 84.757812 223.523438 81.40625 229.515625 78.21875 235.597656 C 75.035156 241.679688 72.019531 247.847656 69.179688 254.101562 C 66.339844 260.351562 63.675781 266.679688 61.1875 273.082031 C 58.703125 279.480469 56.394531 285.949219 54.269531 292.476562 C 52.144531 299.007812 50.203125 305.59375 48.445312 312.230469 C 46.691406 318.867188 45.121094 325.550781 43.734375 332.277344 C 42.351562 339.003906 41.15625 345.761719 40.152344 352.558594 C 39.144531 359.351562 38.332031 366.164062 37.707031 373.003906 C 37.082031 379.84375 36.648438 386.695312 36.40625 393.558594 C 36.164062 400.417969 36.117188 407.285156 36.257812 414.148438 C 36.398438 421.015625 36.734375 427.871094 37.257812 434.71875 C 37.785156 441.566406 38.5 448.394531 39.410156 455.199219 C 40.316406 462.007812 41.414062 468.78125 42.699219 475.527344 C 43.984375 482.273438 45.457031 488.980469 47.121094 495.640625 C 48.78125 502.304688 50.625 508.917969 52.65625 515.476562 C 54.6875 522.035156 56.898438 528.535156 59.292969 534.972656 C 61.6875 541.40625 64.257812 547.773438 67.007812 554.066406 C 69.757812 560.355469 72.683594 566.566406 75.78125 572.699219 C 78.875 578.828125 82.144531 584.863281 85.578125 590.8125 C 89.011719 596.757812 92.609375 602.601562 96.371094 608.347656 C 100.132812 614.09375 104.050781 619.730469 108.128906 625.257812 C 112.203125 630.78125 116.433594 636.191406 120.8125 641.480469 C 125.191406 646.769531 129.714844 651.933594 134.382812 656.96875 C 139.050781 662.007812 143.855469 666.910156 148.796875 671.679688 C 153.738281 676.445312 158.808594 681.074219 164.007812 685.558594 C 169.210938 690.042969 174.53125 694.378906 179.972656 698.566406 C 185.417969 702.753906 190.972656 706.785156 196.640625 710.660156 C 202.308594 714.539062 208.082031 718.253906 213.957031 721.808594 C 219.832031 725.363281 225.804688 728.75 231.867188 731.96875 C 237.933594 735.1875 244.085938 738.238281 250.320312 741.113281 C 256.554688 743.988281 262.867188 746.691406 269.253906 749.214844 C 275.640625 751.734375 282.09375 754.078125 288.609375 756.242188 C 295.128906 758.40625 301.703125 760.382812 308.332031 762.179688 C 314.957031 763.972656 321.632812 765.582031 328.351562 767.003906 C 335.070312 768.425781 341.820312 769.660156 348.609375 770.703125 C 355.394531 771.75 362.207031 772.601562 369.042969 773.265625 C 375.875 773.929688 382.726562 774.402344 389.585938 774.683594 C 396.449219 774.964844 403.3125 775.050781 410.179688 774.949219 C 417.042969 774.847656 423.902344 774.550781 430.753906 774.066406 C 437.601562 773.578125 444.433594 772.902344 451.246094 772.03125 C 458.058594 771.164062 464.839844 770.105469 471.59375 768.859375 C 478.347656 767.609375 485.058594 766.175781 491.730469 764.554688 C 498.402344 762.929688 505.027344 761.121094 511.597656 759.128906 C 518.167969 757.136719 524.679688 754.960938 531.128906 752.605469 C 537.578125 750.246094 543.957031 747.710938 550.265625 744.996094 C 556.574219 742.285156 562.800781 739.394531 568.949219 736.332031 C 575.09375 733.269531 581.152344 730.039062 587.117188 726.640625 C 593.085938 723.238281 598.949219 719.675781 604.71875 715.945312 C 610.484375 712.21875 616.140625 708.332031 621.691406 704.285156 C 627.242188 700.242188 632.671875 696.042969 637.988281 691.695312 C 643.300781 687.347656 648.492188 682.851562 653.554688 678.214844 C 658.617188 673.574219 663.550781 668.796875 668.34375 663.882812 C 673.140625 658.96875 677.796875 653.925781 682.3125 648.75 C 686.824219 643.574219 691.191406 638.277344 695.410156 632.859375 C 699.628906 627.441406 703.691406 621.910156 707.601562 616.261719 C 711.511719 610.617188 715.257812 604.867188 718.847656 599.011719 C 722.433594 593.15625 725.855469 587.203125 729.109375 581.15625 C 732.363281 575.109375 735.449219 568.976562 738.359375 562.757812 C 741.269531 556.539062 744.007812 550.242188 746.566406 543.871094 C 749.125 537.496094 751.507812 531.058594 753.707031 524.554688 C 755.90625 518.046875 757.921875 511.488281 759.753906 504.867188 C 761.585938 498.25 763.234375 491.585938 764.695312 484.875 C 766.15625 478.167969 767.425781 471.421875 768.511719 464.640625 C 769.59375 457.859375 770.484375 451.050781 771.1875 444.222656 C 771.890625 437.390625 772.402344 430.542969 772.722656 423.683594 C 773.042969 416.824219 773.171875 409.960938 773.105469 403.09375 C 773.042969 396.226562 772.789062 389.367188 772.339844 382.515625 C 771.894531 375.664062 771.253906 368.828125 770.425781 362.011719 C 769.59375 355.195312 768.578125 348.40625 767.367188 341.648438 C 766.15625 334.886719 764.761719 328.167969 763.175781 321.484375 C 761.589844 314.800781 759.820312 308.171875 757.867188 301.585938 Z M 264.542969 406.863281 C 264.542969 404.574219 264.601562 402.285156 264.710938 400 C 264.824219 397.714844 264.992188 395.433594 265.21875 393.15625 C 265.441406 390.875 265.722656 388.605469 266.058594 386.339844 C 266.394531 384.078125 266.785156 381.824219 267.230469 379.578125 C 267.679688 377.332031 268.179688 375.101562 268.734375 372.878906 C 269.292969 370.660156 269.902344 368.453125 270.566406 366.265625 C 271.230469 364.074219 271.949219 361.902344 272.71875 359.746094 C 273.492188 357.589844 274.3125 355.457031 275.191406 353.339844 C 276.066406 351.226562 276.992188 349.136719 277.972656 347.066406 C 278.949219 344.996094 279.980469 342.953125 281.058594 340.933594 C 282.136719 338.914062 283.265625 336.925781 284.441406 334.960938 C 285.617188 332.996094 286.84375 331.066406 288.113281 329.160156 C 289.386719 327.257812 290.703125 325.386719 292.066406 323.550781 C 293.429688 321.710938 294.839844 319.90625 296.289062 318.136719 C 297.742188 316.367188 299.238281 314.636719 300.773438 312.941406 C 302.3125 311.242188 303.890625 309.585938 305.507812 307.96875 C 307.125 306.347656 308.785156 304.773438 310.480469 303.234375 C 312.175781 301.695312 313.910156 300.203125 315.679688 298.75 C 317.445312 297.296875 319.25 295.890625 321.089844 294.527344 C 322.929688 293.164062 324.796875 291.847656 326.703125 290.574219 C 328.605469 289.304688 330.539062 288.078125 332.5 286.902344 C 334.464844 285.726562 336.457031 284.597656 338.472656 283.519531 C 340.492188 282.4375 342.535156 281.410156 344.605469 280.433594 C 346.675781 279.453125 348.765625 278.527344 350.882812 277.648438 C 352.996094 276.773438 355.132812 275.949219 357.285156 275.179688 C 359.441406 274.410156 361.613281 273.691406 363.804688 273.027344 C 365.996094 272.363281 368.199219 271.75 370.421875 271.195312 C 372.640625 270.640625 374.875 270.136719 377.117188 269.691406 C 379.363281 269.246094 381.617188 268.855469 383.882812 268.519531 C 386.144531 268.183594 388.417969 267.902344 390.695312 267.675781 C 392.972656 267.453125 395.253906 267.285156 397.539062 267.171875 C 399.828125 267.058594 402.113281 267.003906 404.402344 267.003906 C 406.691406 267.003906 408.980469 267.058594 411.265625 267.171875 C 413.550781 267.285156 415.835938 267.453125 418.113281 267.675781 C 420.390625 267.902344 422.660156 268.183594 424.925781 268.519531 C 427.1875 268.855469 429.445312 269.246094 431.6875 269.691406 C 433.933594 270.136719 436.167969 270.640625 438.386719 271.195312 C 440.605469 271.75 442.8125 272.363281 445.003906 273.027344 C 447.191406 273.691406 449.367188 274.410156 451.519531 275.179688 C 453.675781 275.949219 455.8125 276.773438 457.925781 277.648438 C 460.039062 278.527344 462.132812 279.453125 464.199219 280.433594 C 466.269531 281.410156 468.3125 282.4375 470.332031 283.519531 C 472.351562 284.597656 474.34375 285.726562 476.304688 286.902344 C 478.269531 288.078125 480.203125 289.304688 482.105469 290.574219 C 484.007812 291.847656 485.878906 293.164062 487.71875 294.527344 C 489.554688 295.890625 491.359375 297.296875 493.128906 298.75 C 494.898438 300.203125 496.632812 301.695312 498.328125 303.234375 C 500.023438 304.773438 501.679688 306.347656 503.300781 307.96875 C 504.917969 309.585938 506.496094 311.242188 508.03125 312.941406 C 509.570312 314.636719 511.0625 316.367188 512.515625 318.136719 C 513.96875 319.90625 515.375 321.710938 516.738281 323.550781 C 518.101562 325.386719 519.421875 327.257812 520.691406 329.160156 C 521.964844 331.066406 523.1875 332.996094 524.363281 334.960938 C 525.542969 336.925781 526.667969 338.914062 527.75 340.933594 C 528.828125 342.953125 529.855469 344.996094 530.835938 347.066406 C 531.8125 349.136719 532.742188 351.226562 533.617188 353.339844 C 534.492188 355.457031 535.316406 357.589844 536.085938 359.746094 C 536.859375 361.902344 537.574219 364.074219 538.242188 366.265625 C 538.90625 368.453125 539.515625 370.660156 540.070312 372.878906 C 540.628906 375.101562 541.128906 377.332031 541.574219 379.578125 C 542.023438 381.824219 542.414062 384.078125 542.75 386.339844 C 543.085938 388.605469 543.363281 390.875 543.589844 393.15625 C 543.8125 395.433594 543.980469 397.714844 544.09375 400 C 544.207031 402.285156 544.261719 404.574219 544.261719 406.863281 C 544.261719 409.152344 544.207031 411.441406 544.09375 413.726562 C 543.980469 416.011719 543.8125 418.292969 543.589844 420.570312 C 543.363281 422.851562 543.085938 425.121094 542.75 427.386719 C 542.414062 429.648438 542.023438 431.902344 541.574219 434.148438 C 541.128906 436.394531 540.628906 438.625 540.070312 440.847656 C 539.515625 443.066406 538.90625 445.273438 538.242188 447.460938 C 537.574219 449.652344 536.859375 451.824219 536.085938 453.980469 C 535.316406 456.136719 534.492188 458.269531 533.617188 460.386719 C 532.742188 462.5 531.8125 464.589844 530.835938 466.660156 C 529.855469 468.730469 528.828125 470.773438 527.75 472.792969 C 526.667969 474.8125 525.542969 476.800781 524.363281 478.765625 C 523.1875 480.726562 521.964844 482.660156 520.691406 484.566406 C 519.421875 486.46875 518.101562 488.339844 516.738281 490.175781 C 515.375 492.015625 513.96875 493.820312 512.515625 495.589844 C 511.0625 497.359375 509.570312 499.089844 508.03125 500.785156 C 506.496094 502.484375 504.917969 504.140625 503.300781 505.757812 C 501.679688 507.378906 500.023438 508.953125 498.328125 510.492188 C 496.632812 512.027344 494.898438 513.523438 493.128906 514.976562 C 491.359375 516.429688 489.554688 517.835938 487.71875 519.199219 C 485.878906 520.5625 484.007812 521.878906 482.105469 523.152344 C 480.203125 524.421875 478.269531 525.648438 476.304688 526.824219 C 474.34375 528 472.351562 529.128906 470.332031 530.207031 C 468.3125 531.285156 466.269531 532.316406 464.199219 533.292969 C 462.132812 534.273438 460.039062 535.199219 457.925781 536.078125 C 455.8125 536.953125 453.675781 537.777344 451.519531 538.546875 C 449.367188 539.316406 447.191406 540.035156 445.003906 540.699219 C 442.8125 541.363281 440.605469 541.976562 438.386719 542.53125 C 436.167969 543.085938 433.933594 543.589844 431.6875 544.035156 C 429.445312 544.480469 427.1875 544.871094 424.925781 545.207031 C 422.660156 545.542969 420.390625 545.824219 418.113281 546.050781 C 415.835938 546.273438 413.550781 546.441406 411.265625 546.554688 C 408.980469 546.667969 406.691406 546.722656 404.402344 546.722656 C 402.117188 546.71875 399.828125 546.660156 397.542969 546.542969 C 395.257812 546.425781 392.980469 546.253906 390.703125 546.027344 C 388.425781 545.800781 386.15625 545.515625 383.894531 545.175781 C 381.632812 544.839844 379.378906 544.445312 377.136719 543.996094 C 374.890625 543.546875 372.660156 543.042969 370.441406 542.484375 C 368.222656 541.925781 366.019531 541.3125 363.832031 540.644531 C 361.644531 539.980469 359.472656 539.257812 357.320312 538.484375 C 355.164062 537.714844 353.03125 536.886719 350.917969 536.011719 C 348.808594 535.132812 346.714844 534.203125 344.648438 533.226562 C 342.582031 532.246094 340.539062 531.214844 338.523438 530.136719 C 336.507812 529.054688 334.515625 527.925781 332.554688 526.75 C 330.59375 525.574219 328.660156 524.347656 326.761719 523.078125 C 324.859375 521.804688 322.988281 520.488281 321.152344 519.125 C 319.316406 517.761719 317.511719 516.351562 315.742188 514.902344 C 313.976562 513.449219 312.242188 511.953125 310.550781 510.417969 C 308.855469 508.882812 307.199219 507.304688 305.578125 505.6875 C 303.960938 504.070312 302.386719 502.414062 300.847656 500.71875 C 299.3125 499.023438 297.816406 497.292969 296.367188 495.523438 C 294.914062 493.753906 293.507812 491.953125 292.144531 490.113281 C 290.78125 488.277344 289.460938 486.410156 288.191406 484.507812 C 286.917969 482.605469 285.695312 480.671875 284.515625 478.710938 C 283.339844 476.75 282.210938 474.761719 281.132812 472.742188 C 280.050781 470.726562 279.023438 468.683594 278.042969 466.617188 C 277.0625 464.550781 276.132812 462.460938 275.257812 460.347656 C 274.378906 458.234375 273.554688 456.101562 272.78125 453.949219 C 272.007812 451.792969 271.289062 449.625 270.621094 447.433594 C 269.957031 445.246094 269.34375 443.042969 268.785156 440.824219 C 268.226562 438.605469 267.722656 436.375 267.273438 434.132812 C 266.824219 431.886719 266.429688 429.636719 266.089844 427.371094 C 265.75 425.109375 265.46875 422.839844 265.238281 420.5625 C 265.011719 418.289062 264.839844 416.007812 264.722656 413.722656 C 264.609375 411.4375 264.546875 409.152344 264.542969 406.863281 Z M 264.542969 406.863281 " fill-opacity="1" fill-rule="nonzero"/><path fill="#15234d" d="M 769.308594 137.0625 L 720.230469 184.613281 L 731.929688 252.253906 C 732.101562 253.40625 732.117188 254.5625 731.972656 255.71875 C 731.828125 256.875 731.535156 257.992188 731.085938 259.066406 C 730.636719 260.140625 730.050781 261.136719 729.332031 262.054688 C 728.613281 262.96875 727.78125 263.773438 726.84375 264.460938 C 725.890625 265.1875 724.851562 265.765625 723.730469 266.191406 C 722.609375 266.621094 721.449219 266.878906 720.253906 266.96875 C 719.058594 267.058594 717.875 266.976562 716.703125 266.722656 C 715.527344 266.46875 714.417969 266.054688 713.363281 265.476562 L 652.84375 233.691406 L 592.324219 265.476562 C 590.507812 266.503906 588.558594 267.011719 586.476562 267.003906 C 585.09375 267.03125 583.75 266.828125 582.441406 266.390625 C 581.132812 265.953125 579.933594 265.3125 578.847656 264.460938 C 577.90625 263.773438 577.078125 262.96875 576.355469 262.054688 C 575.636719 261.136719 575.050781 260.140625 574.605469 259.066406 C 574.15625 257.992188 573.859375 256.875 573.71875 255.71875 C 573.574219 254.5625 573.589844 253.40625 573.761719 252.253906 L 585.457031 184.613281 L 536.378906 137.0625 C 535.558594 136.195312 534.863281 135.238281 534.300781 134.1875 C 533.734375 133.136719 533.320312 132.03125 533.050781 130.867188 C 532.78125 129.703125 532.671875 128.527344 532.71875 127.335938 C 532.765625 126.140625 532.96875 124.976562 533.328125 123.839844 C 533.675781 122.707031 534.171875 121.648438 534.820312 120.660156 C 535.472656 119.671875 536.246094 118.792969 537.148438 118.027344 C 538.050781 117.261719 539.039062 116.636719 540.121094 116.15625 C 541.203125 115.671875 542.328125 115.351562 543.5 115.191406 L 611.140625 105.53125 L 641.402344 43.992188 C 641.695312 43.5 642.023438 43.027344 642.378906 42.578125 C 642.734375 42.128906 643.117188 41.703125 643.527344 41.300781 C 643.9375 40.902344 644.371094 40.527344 644.832031 40.183594 C 645.289062 39.839844 645.769531 39.523438 646.269531 39.242188 C 646.765625 38.957031 647.28125 38.707031 647.8125 38.492188 C 648.34375 38.277344 648.890625 38.09375 649.445312 37.949219 C 650 37.800781 650.5625 37.691406 651.128906 37.617188 C 651.699219 37.542969 652.269531 37.507812 652.84375 37.507812 C 653.417969 37.507812 653.988281 37.542969 654.558594 37.617188 C 655.128906 37.691406 655.691406 37.800781 656.246094 37.949219 C 656.800781 38.09375 657.34375 38.277344 657.875 38.492188 C 658.40625 38.707031 658.921875 38.957031 659.421875 39.242188 C 659.917969 39.523438 660.398438 39.839844 660.859375 40.183594 C 661.316406 40.527344 661.75 40.902344 662.160156 41.300781 C 662.574219 41.703125 662.957031 42.128906 663.3125 42.578125 C 663.667969 43.027344 663.992188 43.5 664.289062 43.992188 L 694.546875 105.53125 L 762.1875 115.191406 C 763.371094 115.367188 764.503906 115.699219 765.59375 116.1875 C 766.6875 116.671875 767.691406 117.296875 768.609375 118.058594 C 769.527344 118.820312 770.328125 119.695312 771.007812 120.675781 C 771.6875 121.65625 772.222656 122.710938 772.613281 123.839844 C 772.953125 124.988281 773.132812 126.160156 773.15625 127.359375 C 773.179688 128.558594 773.046875 129.738281 772.757812 130.898438 C 772.46875 132.0625 772.027344 133.164062 771.445312 134.210938 C 770.859375 135.257812 770.148438 136.207031 769.308594 137.0625 Z M 769.308594 137.0625 " fill-opacity="1" fill-rule="nonzero"/></svg>